<?xml version="1.0" standalone="no"?><!DOCTYPE svg PUBLIC "-//W3C//DTD SVG 1.1//EN" "http://www.w3.org/Graphics/SVG/1.1/DTD/svg11.dtd"><svg t="1717506545588" class="icon" viewBox="0 0 1024 1024" version="1.1" xmlns="http://www.w3.org/2000/svg" p-id="8180" xmlns:xlink="http://www.w3.org/1999/xlink" width="200" height="200"><path d="M415.061333 611.669333m-307.2 0a307.2 307.2 0 1 0 614.4 0 307.2 307.2 0 1 0-614.4 0Z" fill="#E9EAEB" p-id="8181"></path><path d="M357.717333 368.64h-1.365333l-163.84 95.573333v177.493334l165.205333 95.573333 162.474667-95.573333V464.213333z" fill="#FFFFFF" p-id="8182"></path><path d="M357.717333 753.664l-177.493333-103.765333V456.021333L353.621333 354.986667h6.826667l4.096 1.365333 169.301333 99.669333v192.512l-176.128 105.130667z m-151.552-120.149333l150.186667 87.381333 150.186667-87.381333V472.405333l-150.186667-87.381333-150.186667 87.381333v161.109334z" fill="#2A5082" p-id="8183"></path><path d="M357.717333 576.170667l-172.032-99.669334 15.018667-24.576 157.013333 91.477334 155.648-91.477334 15.018667 24.576z" fill="#2A5082" p-id="8184"></path><path d="M342.698667 559.786667h27.306666v177.493333h-27.306666z" fill="#2A5082" p-id="8185"></path><path d="M861.525333 273.066667h27.306667v81.92h-27.306667z" fill="#BCC0C4" p-id="8186"></path><path d="M834.218667 300.373333h81.92v27.306667h-81.92zM192.512 204.8h27.306667v81.92h-27.306667z" fill="#BCC0C4" p-id="8187"></path><path d="M165.205333 232.106667h81.92v27.306666h-81.92z" fill="#BCC0C4" p-id="8188"></path><path d="M521.557333 122.88h-1.365333l-163.84 95.573333v518.826667l165.205333 95.573333 162.474667-95.573333V218.453333z" fill="#A3D4FF" p-id="8189"></path><path d="M521.557333 849.237333l-177.493333-103.765333V210.261333L517.461333 109.226667h6.826667l4.096 1.365333 169.301333 99.669333v533.845334l-176.128 105.130666z m-151.552-120.149333l150.186667 87.381333 150.186667-87.381333V226.645333l-150.186667-87.381333-150.186667 87.381333v502.442667z" fill="#2A5082" p-id="8190"></path><path d="M521.557333 330.410667l-172.032-99.669334 15.018667-24.576 157.013333 91.477334 155.648-91.477334 15.018667 24.576z" fill="#2A5082" p-id="8191"></path><path d="M506.538667 314.026667h27.306666v518.826666h-27.306666z" fill="#2A5082" p-id="8192"></path><path d="M685.397333 354.986667h-1.365333l-163.84 95.573333v382.293333l165.205333 95.573334 162.474667-95.573334V450.56z" fill="#E9EAEB" p-id="8193"></path><path d="M685.397333 944.810667l-177.493333-103.765334V442.368L681.301333 341.333333h6.826667l4.096 1.365334 169.301333 99.669333v397.312l-176.128 105.130667z m-151.552-120.149334l150.186667 87.381334 150.186667-87.381334V458.752l-150.186667-87.381333-150.186667 87.381333v365.909333z" fill="#2A5082" p-id="8194"></path><path d="M685.397333 562.517333l-172.032-99.669333 15.018667-24.576 157.013333 91.477333 155.648-91.477333 15.018667 24.576z" fill="#2A5082" p-id="8195"></path><path d="M670.378667 546.133333h27.306666v382.293334h-27.306666z" fill="#2A5082" p-id="8196"></path><path d="M794.624 191.146667c-30.037333 0-54.613333-24.576-54.613333-54.613334s24.576-54.613333 54.613333-54.613333 54.613333 24.576 54.613333 54.613333-24.576 54.613333-54.613333 54.613334z m0-81.92c-15.018667 0-27.306667 12.288-27.306667 27.306666s12.288 27.306667 27.306667 27.306667 27.306667-12.288 27.306667-27.306667-12.288-27.306667-27.306667-27.306666z" fill="#BCC0C4" p-id="8197"></path></svg>