<?xml version="1.0" standalone="no"?><!DOCTYPE svg PUBLIC "-//W3C//DTD SVG 1.1//EN" "http://www.w3.org/Graphics/SVG/1.1/DTD/svg11.dtd"><svg t="1717745504656" class="icon" viewBox="0 0 1033 1024" version="1.1" xmlns="http://www.w3.org/2000/svg" p-id="2564" xmlns:xlink="http://www.w3.org/1999/xlink" width="201.7578125" height="200"><path d="M0 197.797058m108.406521-28.832589l526.886667-140.134623q108.406521-28.832589 137.239111 79.573932l140.134622 526.886667q28.832589 108.406521-79.573932 137.239111l-526.886667 140.134622q-108.406521 28.832589-137.239111-79.573932l-140.134622-526.886667q-28.832589-108.406521 79.573932-137.23911Z" fill="#0F62FE" p-id="2565"></path><path d="M262.810642 253.195618m160.250391 0l449.053646 0q160.250391 0 160.250391 160.250391l0 449.053647q0 160.250391-160.250391 160.250391l-449.053646 0q-160.250391 0-160.250391-160.250391l0-449.053647q0-160.250391 160.250391-160.250391Z" fill="#C1D0FF" fill-opacity=".4" p-id="2566"></path><path d="M463.123631 611.981822c0-17.701258 14.34882-32.050078 32.050078-32.050079h8.012519c17.701258 0 32.050078 14.34882 32.050079 32.050079v224.355355h-72.112676V611.981822zM612.694936 469.533646c0-17.701258 14.34882-32.050078 32.050078-32.050078h8.01252c17.701258 0 32.050078 14.34882 32.050078 32.050078v366.805133h-72.112676V469.533646zM762.266241 560.344338c0-17.701258 14.34882-32.050078 32.050078-32.050078h8.01252c17.701258 0 32.050078 14.34882 32.050078 32.050078v275.994441h-72.112676V560.344338z" fill="#FFFFFF" p-id="2567"></path></svg>